<svg xmlns="http://www.w3.org/2000/svg" xmlns:xlink="http://www.w3.org/1999/xlink" width="300" zoomAndPan="magnify" viewBox="0 0 224.87999 74.999997" height="100" preserveAspectRatio="xMidYMid meet" version="1.0"><defs><g/><clipPath id="114ea3ee5d"><path d="M 206.949219 41.664062 L 220.875 41.664062 L 220.875 55.59375 L 206.949219 55.59375 Z M 206.949219 41.664062 " clip-rule="nonzero"/></clipPath><clipPath id="ee626c7a56"><path d="M 213.910156 41.664062 C 210.066406 41.664062 206.949219 44.78125 206.949219 48.628906 C 206.949219 52.472656 210.066406 55.59375 213.910156 55.59375 C 217.757812 55.59375 220.875 52.472656 220.875 48.628906 C 220.875 44.78125 217.757812 41.664062 213.910156 41.664062 Z M 213.910156 41.664062 " clip-rule="nonzero"/></clipPath></defs><g fill="#a81100" fill-opacity="1"><g transform="translate(9.416211, 53.497867)"><g><path d="M 8.953125 0.296875 C 3.460938 0.296875 0.71875 -2.484375 0.71875 -8.046875 L 0.765625 -10.25 L 7.40625 -10.25 L 7.4375 -6.984375 C 7.4375 -6.328125 7.5625 -5.828125 7.8125 -5.484375 C 8.070312 -5.140625 8.492188 -4.96875 9.078125 -4.96875 C 9.960938 -4.96875 10.40625 -5.691406 10.40625 -7.140625 C 10.40625 -8.203125 10.191406 -9.035156 9.765625 -9.640625 C 9.347656 -10.242188 8.6875 -10.890625 7.78125 -11.578125 L 4.25 -14.3125 C 3.03125 -15.25 2.15625 -16.210938 1.625 -17.203125 C 1.09375 -18.203125 0.828125 -19.613281 0.828125 -21.4375 C 0.828125 -22.851562 1.203125 -24.0625 1.953125 -25.0625 C 2.703125 -26.0625 3.695312 -26.8125 4.9375 -27.3125 C 6.175781 -27.820312 7.554688 -28.078125 9.078125 -28.078125 C 14.460938 -28.078125 17.15625 -25.398438 17.15625 -20.046875 L 17.15625 -19.515625 L 10.28125 -19.515625 L 10.28125 -20.578125 C 10.28125 -21.234375 10.171875 -21.796875 9.953125 -22.265625 C 9.742188 -22.734375 9.382812 -22.96875 8.875 -22.96875 C 8.425781 -22.96875 8.082031 -22.832031 7.84375 -22.5625 C 7.601562 -22.300781 7.484375 -21.941406 7.484375 -21.484375 C 7.484375 -20.472656 7.875 -19.6875 8.65625 -19.125 L 12.75 -16.125 C 14.21875 -15.039062 15.34375 -13.859375 16.125 -12.578125 C 16.914062 -11.304688 17.3125 -9.695312 17.3125 -7.75 C 17.3125 -5.164062 16.578125 -3.175781 15.109375 -1.78125 C 13.640625 -0.394531 11.585938 0.296875 8.953125 0.296875 Z M 8.953125 0.296875 "/></g></g></g><g fill="#a81100" fill-opacity="1"><g transform="translate(25.354501, 53.497867)"><g><path d="M 6.375 0.296875 C 4.226562 0.296875 2.753906 -0.414062 1.953125 -1.84375 C 1.160156 -3.269531 0.765625 -5.3125 0.765625 -7.96875 C 0.765625 -10.144531 1.046875 -11.8125 1.609375 -12.96875 C 2.179688 -14.132812 2.972656 -14.988281 3.984375 -15.53125 C 4.992188 -16.082031 6.535156 -16.6875 8.609375 -17.34375 L 10.4375 -17.953125 L 10.4375 -20.796875 C 10.4375 -21.535156 10.289062 -22.097656 10 -22.484375 C 9.707031 -22.878906 9.359375 -23.078125 8.953125 -23.078125 C 8.597656 -23.078125 8.285156 -22.910156 8.015625 -22.578125 C 7.753906 -22.253906 7.625 -21.8125 7.625 -21.25 L 7.625 -19.578125 L 1.171875 -19.578125 L 1.171875 -20.5 C 1.171875 -23.226562 1.8125 -25.171875 3.09375 -26.328125 C 4.375 -27.492188 6.457031 -28.078125 9.34375 -28.078125 C 11.644531 -28.078125 13.515625 -27.476562 14.953125 -26.28125 C 16.390625 -25.082031 17.109375 -23.378906 17.109375 -21.171875 L 17.109375 0 L 10.515625 0 L 10.515625 -3.296875 C 10.179688 -2.160156 9.65625 -1.273438 8.9375 -0.640625 C 8.21875 -0.015625 7.363281 0.296875 6.375 0.296875 Z M 9 -4.859375 C 9.5 -4.859375 9.859375 -5.066406 10.078125 -5.484375 C 10.296875 -5.898438 10.40625 -6.410156 10.40625 -7.015625 L 10.40625 -14.765625 C 9.414062 -14.378906 8.6875 -13.894531 8.21875 -13.3125 C 7.75 -12.738281 7.515625 -11.929688 7.515625 -10.890625 L 7.515625 -7.328125 C 7.515625 -5.679688 8.007812 -4.859375 9 -4.859375 Z M 9 -4.859375 "/></g></g></g><g fill="#a81100" fill-opacity="1"><g transform="translate(41.596398, 53.497867)"><g><path d="M 1.328125 -27.78125 L 7.8125 -27.78125 L 7.8125 -24.5625 C 8.125 -25.75 8.644531 -26.628906 9.375 -27.203125 C 10.101562 -27.785156 11.140625 -28.078125 12.484375 -28.078125 C 13.578125 -28.078125 14.519531 -27.832031 15.3125 -27.34375 C 16.113281 -26.851562 16.675781 -26.175781 17 -25.3125 C 17.5625 -26.269531 18.179688 -26.96875 18.859375 -27.40625 C 19.546875 -27.851562 20.492188 -28.078125 21.703125 -28.078125 C 23.878906 -28.078125 25.390625 -27.410156 26.234375 -26.078125 C 27.085938 -24.753906 27.515625 -22.832031 27.515625 -20.3125 L 27.4375 0 L 20.765625 0 L 20.765625 -20.421875 C 20.765625 -22.210938 20.304688 -23.109375 19.390625 -23.109375 C 18.753906 -23.109375 18.296875 -22.796875 18.015625 -22.171875 C 17.742188 -21.554688 17.609375 -20.820312 17.609375 -19.96875 L 17.609375 0 L 10.96875 0 L 10.96875 -20.421875 C 10.96875 -21.203125 10.882812 -21.832031 10.71875 -22.3125 C 10.550781 -22.789062 10.203125 -23.03125 9.671875 -23.03125 C 8.992188 -23.03125 8.515625 -22.695312 8.234375 -22.03125 C 7.953125 -21.363281 7.8125 -20.5625 7.8125 -19.625 L 7.8125 0 L 1.328125 0 Z M 1.328125 -27.78125 "/></g></g></g><g fill="#a81100" fill-opacity="1"><g transform="translate(68.274624, 53.497867)"><g/></g></g><g fill="#a81100" fill-opacity="1"><g transform="translate(75.066908, 53.497867)"><g><path d="M 4.25 0 L 0.875 -27.78125 L 6.5625 -27.78125 L 8.421875 -12.859375 L 10.015625 -27.78125 L 15.828125 -27.78125 L 17.71875 -12.859375 L 19.28125 -27.78125 L 25.546875 -27.78125 L 21.96875 0 L 15.328125 0 L 13.359375 -15.78125 L 11.609375 0 Z M 4.25 0 "/></g></g></g><g fill="#a81100" fill-opacity="1"><g transform="translate(99.392209, 53.497867)"><g><path d="M 1.296875 -29.640625 L 1.296875 -34.265625 L 7.9375 -34.265625 L 7.9375 -29.640625 Z M 1.296875 0 L 1.296875 -27.78125 L 7.9375 -27.78125 L 7.9375 0 Z M 1.296875 0 "/></g></g></g><g fill="#a81100" fill-opacity="1"><g transform="translate(106.526054, 53.497867)"><g><path d="M 2.046875 -29.640625 L 2.046875 -34.265625 L 8.6875 -34.265625 L 8.6875 -29.640625 Z M 3.453125 3.265625 C 2.015625 3.265625 1.078125 3.097656 0.640625 2.765625 L 0.640625 -1.671875 C 0.765625 -1.617188 0.96875 -1.59375 1.25 -1.59375 C 1.582031 -1.59375 1.796875 -1.695312 1.890625 -1.90625 C 1.992188 -2.125 2.046875 -2.453125 2.046875 -2.890625 L 2.046875 -27.78125 L 8.6875 -27.78125 L 8.6875 -3.078125 C 8.6875 -1.023438 8.269531 0.539062 7.4375 1.625 C 6.601562 2.71875 5.273438 3.265625 3.453125 3.265625 Z M 3.453125 3.265625 "/></g></g></g><g fill="#a81100" fill-opacity="1"><g transform="translate(114.418899, 53.497867)"><g><path d="M 9.109375 0.296875 C 6.242188 0.296875 4.191406 -0.484375 2.953125 -2.046875 C 1.710938 -3.617188 1.09375 -5.960938 1.09375 -9.078125 L 1.09375 -20.234375 C 1.09375 -22.785156 1.828125 -24.726562 3.296875 -26.0625 C 4.765625 -27.40625 6.816406 -28.078125 9.453125 -28.078125 C 14.785156 -28.078125 17.453125 -25.460938 17.453125 -20.234375 L 17.453125 -18.21875 C 17.453125 -16.195312 17.425781 -14.550781 17.375 -13.28125 L 7.75 -13.28125 L 7.75 -7.890625 C 7.75 -6.929688 7.847656 -6.175781 8.046875 -5.625 C 8.242188 -5.082031 8.675781 -4.8125 9.34375 -4.8125 C 9.84375 -4.8125 10.195312 -4.960938 10.40625 -5.265625 C 10.625 -5.578125 10.753906 -5.925781 10.796875 -6.3125 C 10.835938 -6.707031 10.859375 -7.285156 10.859375 -8.046875 L 10.859375 -10.734375 L 17.453125 -10.734375 L 17.453125 -9.140625 C 17.453125 -5.898438 16.828125 -3.515625 15.578125 -1.984375 C 14.328125 -0.460938 12.171875 0.296875 9.109375 0.296875 Z M 10.859375 -16.578125 L 10.859375 -20.15625 C 10.859375 -22.15625 10.363281 -23.15625 9.375 -23.15625 C 8.257812 -23.15625 7.703125 -22.15625 7.703125 -20.15625 L 7.703125 -16.578125 Z M 10.859375 -16.578125 "/></g></g></g><g fill="#a81100" fill-opacity="1"><g transform="translate(130.850555, 53.497867)"><g><path d="M 8.953125 0.296875 C 3.460938 0.296875 0.71875 -2.484375 0.71875 -8.046875 L 0.765625 -10.25 L 7.40625 -10.25 L 7.4375 -6.984375 C 7.4375 -6.328125 7.5625 -5.828125 7.8125 -5.484375 C 8.070312 -5.140625 8.492188 -4.96875 9.078125 -4.96875 C 9.960938 -4.96875 10.40625 -5.691406 10.40625 -7.140625 C 10.40625 -8.203125 10.191406 -9.035156 9.765625 -9.640625 C 9.347656 -10.242188 8.6875 -10.890625 7.78125 -11.578125 L 4.25 -14.3125 C 3.03125 -15.25 2.15625 -16.210938 1.625 -17.203125 C 1.09375 -18.203125 0.828125 -19.613281 0.828125 -21.4375 C 0.828125 -22.851562 1.203125 -24.0625 1.953125 -25.0625 C 2.703125 -26.0625 3.695312 -26.8125 4.9375 -27.3125 C 6.175781 -27.820312 7.554688 -28.078125 9.078125 -28.078125 C 14.460938 -28.078125 17.15625 -25.398438 17.15625 -20.046875 L 17.15625 -19.515625 L 10.28125 -19.515625 L 10.28125 -20.578125 C 10.28125 -21.234375 10.171875 -21.796875 9.953125 -22.265625 C 9.742188 -22.734375 9.382812 -22.96875 8.875 -22.96875 C 8.425781 -22.96875 8.082031 -22.832031 7.84375 -22.5625 C 7.601562 -22.300781 7.484375 -21.941406 7.484375 -21.484375 C 7.484375 -20.472656 7.875 -19.6875 8.65625 -19.125 L 12.75 -16.125 C 14.21875 -15.039062 15.34375 -13.859375 16.125 -12.578125 C 16.914062 -11.304688 17.3125 -9.695312 17.3125 -7.75 C 17.3125 -5.164062 16.578125 -3.175781 15.109375 -1.78125 C 13.640625 -0.394531 11.585938 0.296875 8.953125 0.296875 Z M 8.953125 0.296875 "/></g></g></g><g fill="#a81100" fill-opacity="1"><g transform="translate(146.788847, 53.497867)"><g><path d="M 1.296875 -29.640625 L 1.296875 -34.265625 L 7.9375 -34.265625 L 7.9375 -29.640625 Z M 1.296875 0 L 1.296875 -27.78125 L 7.9375 -27.78125 L 7.9375 0 Z M 1.296875 0 "/></g></g></g><g fill="#a81100" fill-opacity="1"><g transform="translate(153.922692, 53.497867)"><g><path d="M 1.328125 -27.78125 L 7.96875 -27.78125 L 7.96875 -24.25 C 8.25 -25.382812 8.726562 -26.304688 9.40625 -27.015625 C 10.09375 -27.722656 11.003906 -28.078125 12.140625 -28.078125 C 14.015625 -28.078125 15.398438 -27.5 16.296875 -26.34375 C 17.191406 -25.195312 17.640625 -23.5625 17.640625 -21.4375 L 17.640625 0 L 11.125 0 L 11.125 -20.765625 C 11.125 -21.367188 11.003906 -21.882812 10.765625 -22.3125 C 10.523438 -22.75 10.148438 -22.96875 9.640625 -22.96875 C 8.953125 -22.96875 8.5 -22.65625 8.28125 -22.03125 C 8.070312 -21.414062 7.96875 -20.585938 7.96875 -19.546875 L 7.96875 0 L 1.328125 0 Z M 1.328125 -27.78125 "/></g></g></g><g fill="#a81100" fill-opacity="1"><g transform="translate(170.771794, 53.497867)"><g><path d="M 1.328125 -32.796875 L 8.15625 -32.796875 L 8.15625 -25.046875 C 8.863281 -27.066406 10.21875 -28.078125 12.21875 -28.078125 C 14.09375 -28.078125 15.507812 -27.484375 16.46875 -26.296875 C 17.425781 -25.109375 17.90625 -23.476562 17.90625 -21.40625 L 17.90625 0 L 11.265625 0 L 11.265625 -20.984375 C 11.265625 -21.597656 11.125 -22.09375 10.84375 -22.46875 C 10.570312 -22.84375 10.171875 -23.03125 9.640625 -23.03125 C 9.179688 -23.03125 8.816406 -22.832031 8.546875 -22.4375 C 8.285156 -22.050781 8.15625 -21.582031 8.15625 -21.03125 L 8.15625 0 L 1.328125 0 Z M 1.328125 -32.796875 "/></g></g></g><g fill="#a81100" fill-opacity="1"><g transform="translate(187.848592, 53.497867)"><g><path d="M 6.375 0.296875 C 4.226562 0.296875 2.753906 -0.414062 1.953125 -1.84375 C 1.160156 -3.269531 0.765625 -5.3125 0.765625 -7.96875 C 0.765625 -10.144531 1.046875 -11.8125 1.609375 -12.96875 C 2.179688 -14.132812 2.972656 -14.988281 3.984375 -15.53125 C 4.992188 -16.082031 6.535156 -16.6875 8.609375 -17.34375 L 10.4375 -17.953125 L 10.4375 -20.796875 C 10.4375 -21.535156 10.289062 -22.097656 10 -22.484375 C 9.707031 -22.878906 9.359375 -23.078125 8.953125 -23.078125 C 8.597656 -23.078125 8.285156 -22.910156 8.015625 -22.578125 C 7.753906 -22.253906 7.625 -21.8125 7.625 -21.25 L 7.625 -19.578125 L 1.171875 -19.578125 L 1.171875 -20.5 C 1.171875 -23.226562 1.8125 -25.171875 3.09375 -26.328125 C 4.375 -27.492188 6.457031 -28.078125 9.34375 -28.078125 C 11.644531 -28.078125 13.515625 -27.476562 14.953125 -26.28125 C 16.390625 -25.082031 17.109375 -23.378906 17.109375 -21.171875 L 17.109375 0 L 10.515625 0 L 10.515625 -3.296875 C 10.179688 -2.160156 9.65625 -1.273438 8.9375 -0.640625 C 8.21875 -0.015625 7.363281 0.296875 6.375 0.296875 Z M 9 -4.859375 C 9.5 -4.859375 9.859375 -5.066406 10.078125 -5.484375 C 10.296875 -5.898438 10.40625 -6.410156 10.40625 -7.015625 L 10.40625 -14.765625 C 9.414062 -14.378906 8.6875 -13.894531 8.21875 -13.3125 C 7.75 -12.738281 7.515625 -11.929688 7.515625 -10.890625 L 7.515625 -7.328125 C 7.515625 -5.679688 8.007812 -4.859375 9 -4.859375 Z M 9 -4.859375 "/></g></g></g><g clip-path="url(#114ea3ee5d)"><g clip-path="url(#ee626c7a56)"><path fill="#0ca855" d="M 206.949219 41.664062 L 220.875 41.664062 L 220.875 55.59375 L 206.949219 55.59375 Z M 206.949219 41.664062 " fill-opacity="1" fill-rule="nonzero"/></g></g></svg>