<svg xmlns="http://www.w3.org/2000/svg" xmlns:xlink="http://www.w3.org/1999/xlink" width="300" zoomAndPan="magnify" viewBox="0 0 224.87999 52.499999" height="70" preserveAspectRatio="xMidYMid meet" version="1.0"><defs><g/><clipPath id="115d198d95"><path d="M 197.667969 27.902344 L 209.644531 27.902344 L 209.644531 39.878906 L 197.667969 39.878906 Z M 197.667969 27.902344 " clip-rule="nonzero"/></clipPath><clipPath id="224b73942b"><path d="M 203.65625 27.902344 C 200.351562 27.902344 197.667969 30.582031 197.667969 33.890625 C 197.667969 37.195312 200.351562 39.878906 203.65625 39.878906 C 206.964844 39.878906 209.644531 37.195312 209.644531 33.890625 C 209.644531 30.582031 206.964844 27.902344 203.65625 27.902344 Z M 203.65625 27.902344 " clip-rule="nonzero"/></clipPath></defs><g fill="#bf365a" fill-opacity="1"><g transform="translate(27.847418, 38.796415)"><g><path d="M 7.703125 0.265625 C 2.984375 0.265625 0.625 -2.128906 0.625 -6.921875 L 0.65625 -8.8125 L 6.359375 -8.8125 L 6.390625 -6 C 6.390625 -5.4375 6.5 -5.007812 6.71875 -4.71875 C 6.9375 -4.425781 7.296875 -4.28125 7.796875 -4.28125 C 8.554688 -4.28125 8.9375 -4.898438 8.9375 -6.140625 C 8.9375 -7.046875 8.753906 -7.757812 8.390625 -8.28125 C 8.035156 -8.8125 7.46875 -9.367188 6.6875 -9.953125 L 3.65625 -12.3125 C 2.613281 -13.113281 1.863281 -13.941406 1.40625 -14.796875 C 0.945312 -15.660156 0.71875 -16.875 0.71875 -18.4375 C 0.71875 -19.65625 1.035156 -20.691406 1.671875 -21.546875 C 2.316406 -22.410156 3.171875 -23.0625 4.234375 -23.5 C 5.304688 -23.9375 6.492188 -24.15625 7.796875 -24.15625 C 12.429688 -24.15625 14.75 -21.847656 14.75 -17.234375 L 14.75 -16.78125 L 8.84375 -16.78125 L 8.84375 -17.6875 C 8.84375 -18.257812 8.75 -18.742188 8.5625 -19.140625 C 8.382812 -19.546875 8.078125 -19.75 7.640625 -19.75 C 7.242188 -19.75 6.941406 -19.632812 6.734375 -19.40625 C 6.535156 -19.175781 6.4375 -18.863281 6.4375 -18.46875 C 6.4375 -17.601562 6.769531 -16.929688 7.4375 -16.453125 L 10.96875 -13.875 C 12.226562 -12.9375 13.195312 -11.914062 13.875 -10.8125 C 14.550781 -9.71875 14.890625 -8.332031 14.890625 -6.65625 C 14.890625 -4.4375 14.253906 -2.726562 12.984375 -1.53125 C 11.722656 -0.332031 9.960938 0.265625 7.703125 0.265625 Z M 7.703125 0.265625 "/></g></g></g><g fill="#bf365a" fill-opacity="1"><g transform="translate(41.550784, 38.796415)"><g><path d="M 5.484375 0.265625 C 3.628906 0.265625 2.359375 -0.347656 1.671875 -1.578125 C 0.992188 -2.804688 0.65625 -4.566406 0.65625 -6.859375 C 0.65625 -8.722656 0.898438 -10.15625 1.390625 -11.15625 C 1.878906 -12.164062 2.554688 -12.898438 3.421875 -13.359375 C 4.296875 -13.828125 5.625 -14.347656 7.40625 -14.921875 L 8.96875 -15.4375 L 8.96875 -17.890625 C 8.96875 -18.515625 8.84375 -18.992188 8.59375 -19.328125 C 8.34375 -19.671875 8.046875 -19.84375 7.703125 -19.84375 C 7.398438 -19.84375 7.132812 -19.703125 6.90625 -19.421875 C 6.675781 -19.140625 6.5625 -18.757812 6.5625 -18.28125 L 6.5625 -16.84375 L 1.015625 -16.84375 L 1.015625 -17.625 C 1.015625 -19.976562 1.5625 -21.65625 2.65625 -22.65625 C 3.757812 -23.65625 5.550781 -24.15625 8.03125 -24.15625 C 10.007812 -24.15625 11.617188 -23.632812 12.859375 -22.59375 C 14.097656 -21.5625 14.71875 -20.101562 14.71875 -18.21875 L 14.71875 0 L 9.046875 0 L 9.046875 -2.84375 C 8.753906 -1.863281 8.296875 -1.097656 7.671875 -0.546875 C 7.054688 -0.00390625 6.328125 0.265625 5.484375 0.265625 Z M 7.734375 -4.171875 C 8.171875 -4.171875 8.476562 -4.347656 8.65625 -4.703125 C 8.84375 -5.066406 8.9375 -5.507812 8.9375 -6.03125 L 8.9375 -12.703125 C 8.09375 -12.367188 7.46875 -11.953125 7.0625 -11.453125 C 6.664062 -10.953125 6.46875 -10.257812 6.46875 -9.375 L 6.46875 -6.296875 C 6.46875 -4.878906 6.890625 -4.171875 7.734375 -4.171875 Z M 7.734375 -4.171875 "/></g></g></g><g fill="#bf365a" fill-opacity="1"><g transform="translate(55.51517, 38.796415)"><g><path d="M 1.140625 -23.890625 L 6.71875 -23.890625 L 6.71875 -21.125 C 6.976562 -22.144531 7.425781 -22.90625 8.0625 -23.40625 C 8.695312 -23.90625 9.585938 -24.15625 10.734375 -24.15625 C 11.671875 -24.15625 12.484375 -23.941406 13.171875 -23.515625 C 13.859375 -23.085938 14.34375 -22.503906 14.625 -21.765625 C 15.101562 -22.597656 15.632812 -23.203125 16.21875 -23.578125 C 16.8125 -23.960938 17.628906 -24.15625 18.671875 -24.15625 C 20.546875 -24.15625 21.847656 -23.582031 22.578125 -22.4375 C 23.304688 -21.300781 23.671875 -19.644531 23.671875 -17.46875 L 23.59375 0 L 17.859375 0 L 17.859375 -17.5625 C 17.859375 -19.101562 17.460938 -19.875 16.671875 -19.875 C 16.128906 -19.875 15.738281 -19.609375 15.5 -19.078125 C 15.257812 -18.546875 15.140625 -17.910156 15.140625 -17.171875 L 15.140625 0 L 9.4375 0 L 9.4375 -17.5625 C 9.4375 -18.238281 9.363281 -18.78125 9.21875 -19.1875 C 9.082031 -19.601562 8.785156 -19.8125 8.328125 -19.8125 C 7.734375 -19.8125 7.316406 -19.519531 7.078125 -18.9375 C 6.835938 -18.363281 6.71875 -17.675781 6.71875 -16.875 L 6.71875 0 L 1.140625 0 Z M 1.140625 -23.890625 "/></g></g></g><g fill="#bf365a" fill-opacity="1"><g transform="translate(78.452343, 38.796415)"><g/></g></g><g fill="#bf365a" fill-opacity="1"><g transform="translate(84.292282, 38.796415)"><g><path d="M 3.65625 0 L 0.75 -23.890625 L 5.640625 -23.890625 L 7.25 -11.0625 L 8.609375 -23.890625 L 13.609375 -23.890625 L 15.25 -11.0625 L 16.578125 -23.890625 L 21.96875 -23.890625 L 18.90625 0 L 13.1875 0 L 11.484375 -13.578125 L 9.984375 0 Z M 3.65625 0 "/></g></g></g><g fill="#bf365a" fill-opacity="1"><g transform="translate(105.206495, 38.796415)"><g><path d="M 1.109375 -25.5 L 1.109375 -29.46875 L 6.828125 -29.46875 L 6.828125 -25.5 Z M 1.109375 0 L 1.109375 -23.890625 L 6.828125 -23.890625 L 6.828125 0 Z M 1.109375 0 "/></g></g></g><g fill="#bf365a" fill-opacity="1"><g transform="translate(111.340094, 38.796415)"><g><path d="M 1.765625 -25.5 L 1.765625 -29.46875 L 7.46875 -29.46875 L 7.46875 -25.5 Z M 2.96875 2.8125 C 1.726562 2.8125 0.925781 2.664062 0.5625 2.375 L 0.5625 -1.4375 C 0.664062 -1.394531 0.835938 -1.375 1.078125 -1.375 C 1.359375 -1.375 1.539062 -1.460938 1.625 -1.640625 C 1.71875 -1.828125 1.765625 -2.109375 1.765625 -2.484375 L 1.765625 -23.890625 L 7.46875 -23.890625 L 7.46875 -2.640625 C 7.46875 -0.878906 7.109375 0.46875 6.390625 1.40625 C 5.679688 2.34375 4.539062 2.8125 2.96875 2.8125 Z M 2.96875 2.8125 "/></g></g></g><g fill="#bf365a" fill-opacity="1"><g transform="translate(118.126261, 38.796415)"><g><path d="M 7.828125 0.265625 C 5.367188 0.265625 3.609375 -0.40625 2.546875 -1.75 C 1.484375 -3.101562 0.953125 -5.117188 0.953125 -7.796875 L 0.953125 -17.390625 C 0.953125 -19.585938 1.582031 -21.265625 2.84375 -22.421875 C 4.101562 -23.578125 5.863281 -24.15625 8.125 -24.15625 C 12.71875 -24.15625 15.015625 -21.898438 15.015625 -17.390625 L 15.015625 -15.671875 C 15.015625 -13.929688 14.992188 -12.515625 14.953125 -11.421875 L 6.65625 -11.421875 L 6.65625 -6.796875 C 6.65625 -5.960938 6.742188 -5.3125 6.921875 -4.84375 C 7.097656 -4.375 7.46875 -4.140625 8.03125 -4.140625 C 8.46875 -4.140625 8.773438 -4.269531 8.953125 -4.53125 C 9.140625 -4.789062 9.25 -5.085938 9.28125 -5.421875 C 9.3125 -5.765625 9.328125 -6.265625 9.328125 -6.921875 L 9.328125 -9.234375 L 15.015625 -9.234375 L 15.015625 -7.859375 C 15.015625 -5.078125 14.472656 -3.023438 13.390625 -1.703125 C 12.316406 -0.390625 10.460938 0.265625 7.828125 0.265625 Z M 9.328125 -14.265625 L 9.328125 -17.328125 C 9.328125 -19.046875 8.90625 -19.90625 8.0625 -19.90625 C 7.101562 -19.90625 6.625 -19.046875 6.625 -17.328125 L 6.625 -14.265625 Z M 9.328125 -14.265625 "/></g></g></g><g fill="#bf365a" fill-opacity="1"><g transform="translate(132.253789, 38.796415)"><g><path d="M 7.703125 0.265625 C 2.984375 0.265625 0.625 -2.128906 0.625 -6.921875 L 0.65625 -8.8125 L 6.359375 -8.8125 L 6.390625 -6 C 6.390625 -5.4375 6.5 -5.007812 6.71875 -4.71875 C 6.9375 -4.425781 7.296875 -4.28125 7.796875 -4.28125 C 8.554688 -4.28125 8.9375 -4.898438 8.9375 -6.140625 C 8.9375 -7.046875 8.753906 -7.757812 8.390625 -8.28125 C 8.035156 -8.8125 7.46875 -9.367188 6.6875 -9.953125 L 3.65625 -12.3125 C 2.613281 -13.113281 1.863281 -13.941406 1.40625 -14.796875 C 0.945312 -15.660156 0.71875 -16.875 0.71875 -18.4375 C 0.71875 -19.65625 1.035156 -20.691406 1.671875 -21.546875 C 2.316406 -22.410156 3.171875 -23.0625 4.234375 -23.5 C 5.304688 -23.9375 6.492188 -24.15625 7.796875 -24.15625 C 12.429688 -24.15625 14.75 -21.847656 14.75 -17.234375 L 14.75 -16.78125 L 8.84375 -16.78125 L 8.84375 -17.6875 C 8.84375 -18.257812 8.75 -18.742188 8.5625 -19.140625 C 8.382812 -19.546875 8.078125 -19.75 7.640625 -19.75 C 7.242188 -19.75 6.941406 -19.632812 6.734375 -19.40625 C 6.535156 -19.175781 6.4375 -18.863281 6.4375 -18.46875 C 6.4375 -17.601562 6.769531 -16.929688 7.4375 -16.453125 L 10.96875 -13.875 C 12.226562 -12.9375 13.195312 -11.914062 13.875 -10.8125 C 14.550781 -9.71875 14.890625 -8.332031 14.890625 -6.65625 C 14.890625 -4.4375 14.253906 -2.726562 12.984375 -1.53125 C 11.722656 -0.332031 9.960938 0.265625 7.703125 0.265625 Z M 7.703125 0.265625 "/></g></g></g><g fill="#bf365a" fill-opacity="1"><g transform="translate(145.957159, 38.796415)"><g><path d="M 1.109375 -25.5 L 1.109375 -29.46875 L 6.828125 -29.46875 L 6.828125 -25.5 Z M 1.109375 0 L 1.109375 -23.890625 L 6.828125 -23.890625 L 6.828125 0 Z M 1.109375 0 "/></g></g></g><g fill="#bf365a" fill-opacity="1"><g transform="translate(152.090759, 38.796415)"><g><path d="M 1.140625 -23.890625 L 6.859375 -23.890625 L 6.859375 -20.859375 C 7.097656 -21.835938 7.507812 -22.628906 8.09375 -23.234375 C 8.675781 -23.847656 9.457031 -24.15625 10.4375 -24.15625 C 12.050781 -24.15625 13.242188 -23.660156 14.015625 -22.671875 C 14.785156 -21.679688 15.171875 -20.269531 15.171875 -18.4375 L 15.171875 0 L 9.5625 0 L 9.5625 -17.859375 C 9.5625 -18.378906 9.457031 -18.820312 9.25 -19.1875 C 9.039062 -19.5625 8.722656 -19.75 8.296875 -19.75 C 7.703125 -19.75 7.3125 -19.476562 7.125 -18.9375 C 6.945312 -18.40625 6.859375 -17.695312 6.859375 -16.8125 L 6.859375 0 L 1.140625 0 Z M 1.140625 -23.890625 "/></g></g></g><g fill="#bf365a" fill-opacity="1"><g transform="translate(166.577206, 38.796415)"><g><path d="M 1.140625 -28.203125 L 7.015625 -28.203125 L 7.015625 -21.546875 C 7.628906 -23.285156 8.796875 -24.15625 10.515625 -24.15625 C 12.117188 -24.15625 13.332031 -23.640625 14.15625 -22.609375 C 14.988281 -21.585938 15.40625 -20.1875 15.40625 -18.40625 L 15.40625 0 L 9.6875 0 L 9.6875 -18.046875 C 9.6875 -18.566406 9.566406 -18.988281 9.328125 -19.3125 C 9.085938 -19.644531 8.742188 -19.8125 8.296875 -19.8125 C 7.898438 -19.8125 7.585938 -19.640625 7.359375 -19.296875 C 7.128906 -18.960938 7.015625 -18.554688 7.015625 -18.078125 L 7.015625 0 L 1.140625 0 Z M 1.140625 -28.203125 "/></g></g></g><g fill="#bf365a" fill-opacity="1"><g transform="translate(181.259418, 38.796415)"><g><path d="M 5.484375 0.265625 C 3.628906 0.265625 2.359375 -0.347656 1.671875 -1.578125 C 0.992188 -2.804688 0.65625 -4.566406 0.65625 -6.859375 C 0.65625 -8.722656 0.898438 -10.15625 1.390625 -11.15625 C 1.878906 -12.164062 2.554688 -12.898438 3.421875 -13.359375 C 4.296875 -13.828125 5.625 -14.347656 7.40625 -14.921875 L 8.96875 -15.4375 L 8.96875 -17.890625 C 8.96875 -18.515625 8.84375 -18.992188 8.59375 -19.328125 C 8.34375 -19.671875 8.046875 -19.84375 7.703125 -19.84375 C 7.398438 -19.84375 7.132812 -19.703125 6.90625 -19.421875 C 6.675781 -19.140625 6.5625 -18.757812 6.5625 -18.28125 L 6.5625 -16.84375 L 1.015625 -16.84375 L 1.015625 -17.625 C 1.015625 -19.976562 1.5625 -21.65625 2.65625 -22.65625 C 3.757812 -23.65625 5.550781 -24.15625 8.03125 -24.15625 C 10.007812 -24.15625 11.617188 -23.632812 12.859375 -22.59375 C 14.097656 -21.5625 14.71875 -20.101562 14.71875 -18.21875 L 14.71875 0 L 9.046875 0 L 9.046875 -2.84375 C 8.753906 -1.863281 8.296875 -1.097656 7.671875 -0.546875 C 7.054688 -0.00390625 6.328125 0.265625 5.484375 0.265625 Z M 7.734375 -4.171875 C 8.171875 -4.171875 8.476562 -4.347656 8.65625 -4.703125 C 8.84375 -5.066406 8.9375 -5.507812 8.9375 -6.03125 L 8.9375 -12.703125 C 8.09375 -12.367188 7.46875 -11.953125 7.0625 -11.453125 C 6.664062 -10.953125 6.46875 -10.257812 6.46875 -9.375 L 6.46875 -6.296875 C 6.46875 -4.878906 6.890625 -4.171875 7.734375 -4.171875 Z M 7.734375 -4.171875 "/></g></g></g><g clip-path="url(#115d198d95)"><g clip-path="url(#224b73942b)"><path fill="#ffffff" d="M 197.667969 27.902344 L 209.644531 27.902344 L 209.644531 39.878906 L 197.667969 39.878906 Z M 197.667969 27.902344 " fill-opacity="1" fill-rule="nonzero"/></g></g></svg>